<?xml version="1.0" encoding="utf-8"?>
<!-- Generator: Adobe Illustrator 16.0.0, SVG Export Plug-In . SVG Version: 6.00 Build 0)  -->
<!DOCTYPE svg PUBLIC "-//W3C//DTD SVG 1.1//EN" "http://www.w3.org/Graphics/SVG/1.1/DTD/svg11.dtd">
<svg version="1.1" id="Layer_1" xmlns="http://www.w3.org/2000/svg" xmlns:xlink="http://www.w3.org/1999/xlink" x="0px" y="0px"
	 width="2794px" height="439px" viewBox="0 0 2794 439" enable-background="new 0 0 2794 439" xml:space="preserve">
<g id="_x23_ffffffff">
</g>
<g id="_x23_090909ff">
	<path fill="#090909" d="M2606.54,17.38c11.39-3.7,23.45-5.63,35.46-5.13c15.52,0.45,30.57,5.04,44.85,10.91
		c8.521,3.41,16.17,8.93,25.15,11.21c8.061,2.02,17.439,1.87,24.45-3.09c5-4.4,5.56-11.49,7.189-17.54
		c0.91-0.14,1.851-0.28,2.82-0.42c1.47,5.44,0.61,11.13,0.83,16.69c0.09,17.98-0.88,35.93-0.93,53.91
		c-0.021,11.05-0.66,22.08-0.69,33.12c-0.55,11.97-0.09,23.95-0.62,35.91c-0.14,2.04-0.489,4.1-1.8,5.73
		c-0.689-0.36-2.061-1.09-2.75-1.46c-1.83-14.77-2-29.89-6.4-44.229c-5.859-19.66-14.6-38.47-25.449-55.87
		c-10.141-16.04-25.32-28.69-42.761-36.1c-5.64-2.4-11.79-3.07-17.81-3.7c-14.75-2.1-30.57,0.17-43.12,8.53
		c-15,11.21-25.63,29.17-25.6,48.19c-1.101,16.02,0.72,32.85,8.89,46.96c4.66,10,12.33,18.37,21.39,24.58
		c16.011,12.68,36.04,18.07,55,24.65c10.49,3.42,20.98,6.87,31.32,10.72c18.64,8.4,38.229,16.43,52.95,31.12
		c6.56,5.94,11.95,13.08,16.26,20.8c4.47,7.94,8.79,16.12,10.95,25.05c3.68,14.36,5.05,29.3,4.33,44.1l2.29,0.511
		c-0.58-0.07-1.74-0.21-2.311-0.28c-0.64,11.38-4.43,22.25-8.59,32.76c-0.43-0.24-1.29-0.729-1.72-0.97
		c0.36,0.36,1.069,1.069,1.42,1.43c-7.43,16.21-16.979,31.72-29.82,44.22c-11.01,11.431-24.17,20.971-38.729,27.33
		c-12.12,4.551-24.88,8.48-37.96,7.82c-12.66,0.47-25.16-2.14-37.271-5.51c-13.58-4.66-26.72-10.43-39.88-16.12
		c-10.53-4.59-22.479-7.24-33.819-4.26c-8.78,2.159-16.621,8.319-20.351,16.609c-1.64,4.181-1.729,8.73-2.44,13.12
		c-1.209-0.06-2.369-0.14-3.5-0.239c-0.739-13.12-0.239-26.29-0.42-39.44c0.2-35.37,0.381-70.74,1.04-106.1
		c0.391-11.57-0.579-23.26,1.221-34.73c1.109,0.05,2.279,0.13,3.46,0.26c2.199,11.84,2.479,23.97,5.399,35.7
		c3.7,16.521,9.69,32.431,16.681,47.83c3.779,8.03,7.399,16.17,12.06,23.75c6.32,11.33,15,21.09,23.69,30.64
		c6.939,8.12,15.529,14.62,24.5,20.341c18.8,12.5,42.77,17.92,64.88,12.529c11.35-2.62,21.18-9.5,29.31-17.62
		c13.87-13.6,22.19-33.08,21.05-52.609c-0.79-18.68-6.38-38.21-19.85-51.771c-7.69-7.97-17.37-13.58-26.81-19.2
		c-19.67-10.41-41.15-16.6-62.091-23.85c-23.659-6.66-46.3-18.73-62.77-37.25c-8.05-9.46-14.99-20.14-18.71-32.06
		c-6.21-16.15-7.94-33.77-6.74-50.94c1.2-13.49,3.05-27.14,8.19-39.77c3.42-8.54,7.909-16.65,13.2-24.18
		C2567.1,40.79,2585.35,25.48,2606.54,17.38z"/>
	<path fill="#090909" d="M199.61,15.11c24.52-2.12,49.42,0.5,72.99,7.53c33.97,9.64,65.02,28.9,89.31,54.46
		c30.77,32.85,50.6,75.96,54.6,120.86c4.92,48.76-8.99,99.03-37.85,138.601c-29.36,41.049-75.08,69.72-124.58,79.159
		c-57.21,11.511-119.2-3.47-164.62-40.159c-34.91-27.41-59.97-66.94-70.17-110.11c-12.9-51.86-3.98-108.59,24.06-154.07
		c26.89-44.29,71.53-77.3,121.68-90.27C176.27,17.72,187.96,16.16,199.61,15.11 M198.49,99.79c-35.89,3.33-71.12,15.43-100.89,35.86
		c-29.27,19.78-53.49,47.01-69.32,78.61c-0.65,1.82-2.11,3.82-1.24,5.8c20.19,40.88,54.41,74.4,95.17,94.69
		c22.78,11.2,47.63,18.23,72.89,20.78c48.85,5.04,99.38-8.021,139.53-36.36c29.43-20.13,53.4-48.17,68.94-80.25
		c1.989-2.99-0.59-6.03-1.771-8.76c-17.399-32.66-43.41-60.84-75.17-79.97C288.62,106.75,242.95,96.1,198.49,99.79z"/>
	<path fill="#090909" d="M1169.03,25.11c11.72-6.97,25.51-9.31,38.939-9.94c23.49-1.12,46.17,7.43,66.49,18.48
		c7.979,4.5,17.51,7.02,26.63,5.07c3.78-0.78,7.8-2.229,10.18-5.46c3.461-4.479,4.011-10.32,5.391-15.63
		c0.93-0.07,1.88-0.14,2.85-0.21c1.61,10.77,0.221,21.72,0.32,32.56c-0.311,27.69-1.09,55.36-1.62,83.04
		c0.021,4.97,0.12,9.95-0.33,14.9c-0.43,4.57,0.61,9.46-1.43,13.74c-0.931-0.15-1.851-0.29-2.75-0.44
		c-2.011-12.91-1.84-26.14-4.88-38.91c-5.08-20.65-13.91-40.28-24.61-58.61c-9.67-16.84-24.58-30.59-42.229-38.73
		c-7.12-3.68-15.2-4.42-23.021-5.34c-13.97-1.38-28.78,0.84-40.46,9.04c-14.05,10.84-24.2,27.68-24.53,45.7
		c-2.489,24.34,4.66,50.71,23.03,67.63c6.51,5.61,13.36,10.93,20.98,14.99c10.26,5.4,21.17,9.41,32.13,13.11
		c9.2,3.6,18.68,6.42,27.909,9.95c10.74,3.29,20.65,8.64,30.92,13.09c9.931,5.43,20.19,10.66,28.461,18.54
		c11.52,10.09,19.81,23.3,26,37.18c5.319,12.36,7.069,25.85,8.09,39.15c0.52,10.67,0.33,21.51-2.62,31.85
		c-10.47,36.44-35.38,69.32-69.56,86.431c-10.16,4.51-20.931,7.79-31.95,9.26c-11.98,0.811-24.091-0.03-35.74-3.01
		c-9.65-1.84-18.57-6.04-27.73-9.4c-10.92-4.63-21.52-10.17-32.92-13.55c-10.439-2.27-22.39-2.33-31.47,4.04
		c-6.45,3.98-11.27,10.87-12.02,18.49c-0.25,2.2-0.561,4.399-0.971,6.58c-1.05,0.03-2.08,0.06-3.09,0.08
		c-1.4-3.42-0.96-7.141-0.97-10.73c-0.08-27.67,0.21-55.34,0.35-83.01c0.72-14.67,0.25-29.38,0.59-44.06
		c0.33-12.29,0.011-24.6,0.601-36.88c0.17-2.07,0.13-6.17,3.27-5.52c2.86,3.27,2,8.18,2.95,12.2c1.87,23.99,9.18,47.229,18.97,69.1
		c4.11,9.03,8.01,18.19,13.21,26.66c5.38,9.86,12.75,18.42,20.05,26.89c4.53,4.86,8.75,10.09,14.021,14.2
		c7.851,6.32,16.07,12.351,25.271,16.561c14.85,7.369,32.01,9.42,48.31,6.97c15.64-3.07,28.91-13.311,38.54-25.66
		c7.73-10.34,12.97-22.68,14.13-35.59c1.11-17.92-2.39-36.41-11.86-51.83c-5.88-8.67-13.779-15.8-22.64-21.34
		c-7.85-5.53-16.28-10.24-25.22-13.771c-19.84-8.62-40.62-14.75-60.971-21.97c-21.63-8.29-41.56-22.16-54.67-41.49
		c-7.699-10.36-12.1-22.67-15.539-34.99c-3.171-14.01-4.371-28.55-2.7-42.85c1.21-14.44,3.92-29,10.31-42.13
		C1130.25,57.21,1146.58,36.58,1169.03,25.11z"/>
	<path fill="#090909" d="M599.3,17.25c12.38-2.53,25.23-2.02,37.59,0.35c17.87,4.28,34.92,11.38,51.37,19.49
		c9.34,4.4,20.29,9.02,30.521,4.72c8.96-3.63,12.67-13.56,14.14-22.41c1.12-0.07,2.24-0.12,3.38-0.16
		c1.09,6.53,0.08,13.18,0.91,19.74c-0.83,20.67-0.16,41.36-0.57,62.04c-0.04,24.68-0.13,49.36-0.359,74.04
		c-0.07,2.11-0.49,5.72-3.48,4.22c-1.55-2.44-1.09-5.43-1.33-8.16c-1.79-21.07-7.06-41.79-15.479-61.18
		c-7.811-17.6-16.69-34.99-29.181-49.79c-5.72-7.19-11.659-14.35-19.09-19.85c-11.58-9.86-25.63-17.42-40.91-19.16
		c-10.899-1.38-22.409-1.28-32.729,2.88c-7.29,3.33-14.46,7.22-20.35,12.74c-8.521,8.4-15.131,18.69-19.421,29.85
		c-4.229,11.62-8.5,23.26-11.46,35.29c-3.17,10.04-4,20.57-5.979,30.87c-1.5,11.38-3.311,22.75-3.74,34.25
		c-2.37,21.9-3.64,43.9-3.649,65.92c0.239,16.33-0.41,32.69,0.909,48.98c2.351,29.5,5.221,59.76,17.841,86.939
		c3.819,8.031,8.239,15.971,14.8,22.11c8.609,7.63,18.569,14.271,29.97,16.69c11.74,2.229,23.93,2.75,35.69,0.43
		c0.079,0.76,0.22,2.29,0.29,3.05c0.09-0.8,0.27-2.399,0.359-3.199c5.07-0.561,10.01-1.98,14.84-3.58
		c6.49-2.521,12.11-6.74,18.19-10.05c8.229-6.65,15.86-14.03,23.07-21.771c6.579-7.3,11.39-15.94,16.72-24.14
		c6.51-9.961,11.72-20.67,16.68-31.461c3.55-7.84,5.79-16.159,8.45-24.319c2.86-10.11,5.72-20.27,7.15-30.7
		c0.85-4.04,1.159-8.18,2.31-12.15c0.62-0.31,1.86-0.93,2.48-1.24c1.829,12.72,0.619,25.64,0.93,38.439
		c-0.82,18.671-0.41,37.37-0.95,56.061c-0.83,18.979-0.19,38-0.77,57c-0.271,6.279,0.279,12.63-0.811,18.85
		c-0.52-0.01-1.56-0.02-2.07-0.03c-2.14-7.739-4.21-15.739-9.09-22.279c-5.59-7.601-15.95-10.631-25-8.891
		c-9.2,2.09-17.729,6.221-26.39,9.811c-11.75,5.26-23.811,9.89-36.26,13.2c-12.301,2.859-25.061,4-37.65,2.689
		c-8.28-1.11-16.55-2.5-24.59-4.78c-15.89-5.52-31.7-11.88-45.561-21.56c-7.22-5.42-14.27-11.05-21.119-16.92
		c-14.78-14.09-28.341-29.64-38.71-47.3c-4.061-6.69-7.07-13.92-10.36-21c-4.83-11.34-9.2-23.021-11.08-35.26
		c-2.61-16.7-4.45-33.6-3.96-50.54c-0.18-10.17,1.68-20.19,3.07-30.23c1.39-9.22,4.779-17.96,7.01-26.98
		c4.83-13.31,10.04-26.57,17.229-38.81c7.381-13.7,16.881-26.09,26.66-38.14c10.44-11.95,22.28-22.54,34.7-32.37
		c7.56-6.71,16.14-12.14,24.93-17.07C571.66,25.07,585.3,20.09,599.3,17.25z"/>
	<path fill="#090909" d="M1702.01,20.73c52.32-0.21,104.63-0.37,156.95-0.55c24.36-0.16,48.729,0.48,73.09,0.04
		c0.17,1.03,0.521,3.09,0.7,4.12c-0.08-1.06-0.23-3.19-0.311-4.25c15.86,0.42,31.73-0.09,47.601,0.08
		c15.64,0.17,31.271-0.35,46.92-0.32c5.12,0.1,10.33-0.5,15.37,0.83c1.34,5.37,0.74,10.92,0.87,16.39
		c0.17,25.64-0.03,51.29,0.02,76.93c-0.59,12.33-0.46,24.68-0.55,37.02c-0.08,4.54,0.49,9.11-0.27,13.61
		c-0.91-0.05-2.721-0.15-3.62-0.2c-2.431-9.94-1.671-20.38-3.86-30.38c-3.76-18.2-11.95-35.29-22.7-50.38
		c-6.17-8.36-12.27-16.84-19.75-24.1c-22.03-19.86-50.63-32.99-80.45-34.2c-5.68,0.04-11.35,0.01-17.01,0.13
		c-3.49,0.09-7.06-0.22-10.39,0.98c-1.55,6.38-0.91,12.96-1.06,19.45c-0.381,41.35-0.15,82.69-0.221,124.03
		c0.01,10.67-0.12,21.35,0.35,32.01c-0.18,3.04,3.091,3.22,5.341,3.28c26.17-0.06,52.899-12.66,67.109-35.1
		c5.23-7.75,7.88-16.94,8.7-26.19c0.61-3.9,0.2-8.01,1.83-11.71c0.9,0.09,2.7,0.26,3.61,0.34c0.97,15.15,0.2,30.36,0.68,45.53
		c0.54,6-0.06,12.01-0.05,18.02c0.73,13.29,0.09,26.59-0.13,39.89c0.149,20.31-0.23,40.62-0.431,60.939
		c-0.209,2.24-0.09,6.681-3.52,5.47c-2.16-3.379-0.85-7.619-1.25-11.379c-0.6-17.67-3.971-36.741-16.42-50.141
		c-6.971-7.53-15.42-13.49-24.12-18.83c-12.06-7.23-26.39-11.3-40.479-9.43c-1.341,3.27-1.101,6.85-1.16,10.3
		c-0.051,21.36-0.34,42.71-0.57,64.06c-0.02,37-0.07,74-0.29,110.99c-0.51,2.66,2.11,3.99,4.399,3.73
		c12.341,0.08,24.74,0.43,37.051-0.87c9.529-1.41,19.13-2.63,28.47-5.09c8.97-2.3,17.681-5.521,26.22-9.101
		c8.961-3.899,17.101-9.399,24.98-15.119c0.54,0.449,1.62,1.35,2.16,1.799c-0.43-0.529-1.28-1.59-1.711-2.119
		c7.131-5.131,14.16-10.62,19.61-17.59c7.8-9.23,14.55-19.461,19.16-30.67c3.12-7.69,6.22-15.41,8.53-23.4
		c2.2-9.391,3.76-18.95,4.33-28.59c0.3-3.01,0.399-6.14,1.83-8.88c1.33,0.62,3.39,1.05,3.04,3c0.6,24.61-0.33,49.23-0.141,73.85
		c-0.37,21.38,0.42,42.8-0.89,64.15c0.12,1.449-1.15,2.729-2.59,2.529c-23.311,1.061-46.67,0.431-70,0.801
		c-38.41,0.229-76.82-0.061-115.23,0.359l-0.6,0.431c-2.07-0.08-4.13-0.091-6.16-0.091c-24.64,0.36-49.29,0.261-73.93,0.03
		c-8.37-0.14-16.75,0.44-25.09-0.28c-3.78,0.351-7.681,0.7-11.301-0.67c-1.369-3,2.15-3.72,4.36-3.55
		c12.99-0.11,25.979-0.03,38.979-0.28c2.16-0.029,4.311-0.42,6.45-0.88c0.87-10.49,0.08-21.04,0.25-31.55
		c-0.28-27.68-0.39-55.351-0.55-83.03c-0.84-46.3-0.53-92.63-0.98-138.95c-0.279-31.31-0.649-62.64-0.159-93.96
		c-0.63-6.32,0.42-12.64-0.011-18.96c-0.27-3.26,0.101-6.73-1.67-9.64c-6.369-0.62-12.779,0.33-19.13-0.38
		c-3.08-0.42-6.149,0.06-9.2,0.15c-10.149,0.21-20.31-0.05-30.449,0.55c-1.891,4.5-1.101,9.479-1.29,14.22
		c0.06,23.69-0.15,47.36-0.091,71.04c-0.149,27.66,0.261,55.34-0.379,82.98c0.119,28.34-0.19,56.67-0.051,85.01
		c0.13,15.66-0.08,31.32-0.25,46.99c0.16,24.33-0.16,48.66-0.439,73c-0.561,7.18-0.11,14.399-0.94,21.56
		c-2.44-0.99-3.96-3.14-5.43-5.17c-11.431-16.63-23.28-32.95-34.38-49.81c-9.551-13.771-18.74-27.78-28.26-41.551
		c-7.051-9.79-13.28-20.13-20.301-29.939c-11.83-16.87-23.229-34.03-34.87-51.021c-10.979-15.44-21.079-31.47-31.829-47.05
		c-27.58-40.47-54.5-81.38-82.4-121.62c-2.1-2.92-3.95-6.12-6.88-8.31c-1.771,13.6,0.01,27.34-0.53,41.01
		c0.15,54.64,0.36,109.29,0.52,163.93c-0.27,42.021,0.511,84.021,0.69,126.04c-0.04,2.19,0.18,4.41,1.04,6.47
		c14.8,0.7,29.64-0.319,44.45-0.06c1.66-0.15,3.87,0.78,3.689,2.82c-1.63,2.02-4.479,1.2-6.71,1.479
		c-24.63,0.94-49.3,0.891-73.939,1.04c-7.53,0.181-15.19,1.17-22.62-0.43c0.2-1.58,0.8-3.65,2.76-3.67
		c7.94-0.33,15.9-0.13,23.86-0.33c7.22-0.19,14.5,0.34,21.67-0.83c1.39-3.35,0.93-7.04,1.02-10.56c-0.5-31.33-0.1-62.66-0.91-93.971
		c0.141-25.68-0.6-51.36-0.479-77.03c-0.81-29.98-0.51-60-1.49-89.98c-0.17-28.01-0.93-56.01-1.46-84.02
		c-0.4-6.47,0.66-13.05-0.81-19.42c-4.431-1.31-9.07-0.84-13.601-0.95c-10.01-0.13-20.029,0.16-30.04-0.04
		c-2.13,0.09-4.979-1.09-4.319-3.69c0.99-1.83,3.14-1.57,4.939-1.68c22.48-0.55,44.971-0.65,67.471-0.99
		c10.67-0.13,21.35,0.17,32.02-0.39c7.63,0.3,15.32-0.45,22.93,0.53c2.49,0.21,3.92,2.56,5.28,4.39
		c19.18,29.37,38.92,58.38,58.18,87.7c11.181,16.78,21.91,33.87,33.88,50.1c3.23,4.65,6.221,9.47,9.641,14.01
		c-0.641,0.35-1.91,1.05-2.55,1.4c0.68-0.24,2.029-0.72,2.7-0.95c5,7.98,10.18,15.86,15.029,23.95
		c12.15,18.48,24.24,37.01,36.391,55.5c3.479,4.91,6.199,10.48,10.739,14.57c1.5-6.56,0.95-13.32,1.12-19.99
		c-0.08-24.04,0.57-48.07,0.32-72.09c0.06-27.98,0.16-55.96,0.2-83.94c0.8-6.35-0.32-12.69-0.03-19.05
		c-0.2-16.8,0.26-33.62-0.43-50.42c-4.641-1.6-9.62-0.71-14.42-0.88c-6.961,0.3-13.94-0.08-20.881,0.45
		c-4.55,0.25-9.119,0.07-13.58-0.81c-0.08-1.23-0.13-2.47-0.14-3.7C1691.47,20.2,1696.79,20.81,1702.01,20.73z"/>
	<path fill="#090909" d="M2049.62,21.68c22.75-1.19,45.569-0.77,68.35-1.15c34.69-0.23,69.38-0.14,104.061,0.42
		c1.979,0.16,5.83,0.14,5.33,3.13c0.26,1.77-2.2,1.78-3.32,2.16c-10.89,0.53-21.81-0.08-32.69,0.26
		c-1.779-0.01-3.439,0.6-5.039,1.17c1.779,9.01,4.85,17.72,7.51,26.5c21.26,68.76,42.31,137.59,63.71,206.3
		c2.2,7.14,4.27,14.34,7.14,21.25c0.38-0.08,1.141-0.25,1.52-0.34c5.82-15.5,9.961-31.58,14.86-47.39
		c4.96-15.92,9.39-32.01,14.561-47.87c5.13-18.74,11.27-37.2,15.899-56.08c0.96-3.75-0.67-7.43-1.68-10.97
		c-9.061-29.02-17.74-58.14-26.77-87.16c-0.721-2.09-1.431-5.17-4.141-5.29c-10.31-0.55-20.66-0.04-30.97-0.43
		c-1.87,0.04-4.94-0.8-4.24-3.28c0.81-2.24,3.38-1.58,5.25-1.75c16.2,0.21,32.39-0.5,48.59-0.7c0.311,2.39,0.65,4.77,1.15,7.13
		c-0.22-2.38-0.5-4.76-0.88-7.12c30.38-0.17,60.76-0.2,91.14,0.08c8.36-0.12,16.729-0.19,25.101,0.11c1.64,0.1,3.75,0.38,4.31,2.26
		c0.069,1.82-1.58,2.95-3.23,2.79c-15.729,1.21-31.55-0.14-47.279,1.09c-0.3,0.53-0.9,1.59-1.2,2.12
		c14.22,48.9,29.27,97.55,43.89,146.34c4.46,13.8,7.98,27.88,12.57,41.65c4.87,15.56,9.399,31.23,14.01,46.88
		c1.681,5.3,3.15,10.71,5.55,15.76c0.36-0.1,1.101-0.3,1.46-0.4c4.58-11.24,7.591-23.03,11.62-34.46
		c4.391-14.08,9.01-28.08,13.63-42.08c6.391-20.82,13-41.57,19.58-62.33l-0.87-0.11c1.32-0.28,2.69-0.53,4.061-0.88
		c-0.78,0.02-2.35,0.05-3.13,0.07c8.939-26.99,17.229-54.2,26.2-81.18c2.859-9.74,6.31-19.31,8.899-29.12
		c1.181-2.24-1.12-3.68-3.13-3.42c-14.561-0.29-29.12,0.06-43.68-0.1c-1.48-0.07-4.09-0.51-3.76-2.48
		c-0.461-2.35,2.659-2.76,4.359-2.72c31.34-0.1,62.69-0.09,94.04,0.01c2.82-0.02,5.67,0.11,8.51,0.41c0.11,1.23,0.22,2.46,0.37,3.7
		c-4.189,1.15-8.55,0.94-12.83,0.97c-10.33,0-20.649,0.01-30.97,0.06c-2.14-0.05-4.18,0.43-6.12,1.14
		c-4.87,13.23-8.78,26.79-13,40.24c-16.62,52.53-33.609,104.94-49.59,157.67c-7.1,24.07-14.92,47.92-21.84,72.04
		c-12.71,40.23-24.801,80.66-38.2,120.67c-0.63,1.72-1.57,3.32-2.38,4.93c-3.41-4.859-4.55-10.8-6.55-16.3
		c-10.16-30.239-19.011-60.89-28.671-91.29c-5.06-15.73-9.869-31.529-14.89-47.27c-12.62-38.9-23.76-78.25-36.31-117.17
		c-0.71-2.33-1.76-4.57-3.42-6.36c-3.881,7.2-5.471,15.33-8.061,23.04c-15.91,51.67-31.63,103.41-46.609,155.359
		c-9.051,27.881-17.09,56.08-25.961,84.021c-1.879,5.06-3.109,10.5-6.369,14.89c-4.521-8.359-6.66-17.739-9.83-26.649
		c-13.23-39.79-26.221-79.67-39.16-119.56c-25.78-78.38-50.34-157.16-75.561-235.73c-1.39-3.86-2.109-8.02-4.199-11.59
		c-1.551-1.67-4.101-1.3-6.12-1.69c-13.75-0.36-27.521-0.05-41.261-0.7c-1.22-0.19-2.409-0.43-3.56-0.7
		C2049.43,23.55,2049.51,22.61,2049.62,21.68z"/>
	<path fill="#090909" d="M754.23,24.64c5.949-0.6,11.939-0.21,17.909-0.18c41.63,0.22,83.271-0.3,124.9,0.35
		c9.99,0.87,20.04,0.02,30.04,0.88c19.64,1.77,39.39,4.78,57.81,12.13c13.101,4.5,24.761,12.2,35.971,20.18
		c10.649,9.29,19.37,20.68,26.13,33.07c12.14,21.79,10.85,49.87-1.82,71.14c-10.57,15.34-26.62,25.95-43.29,33.69
		c-8.45,4.03-17.74,5.76-26.42,9.15c6.271,3.18,13.33,4.13,19.93,6.41c16.28,5.39,32.3,12.53,45.5,23.67
		c7.511,7.13,15.521,14.01,20.891,23.01c7.53,11.66,12.84,24.91,14.359,38.77c0.921,13.08,0.57,26.57-4.12,38.97
		c-4.33,15.12-13.13,28.91-25.01,39.22c-7.46,6.37-15.33,12.32-24,16.961c-11.26,7.159-24.029,11.67-37.04,14.34
		c-17.899,2.449-35.939,4.25-54.02,4.109c-46.34-0.029-92.67,0.851-139.01-0.09c-9.98-0.12-19.971-0.16-29.95-0.2
		c-2.271-0.029-4.5-0.439-6.721-0.79c-0.01-1.25,0.021-2.51,0.07-3.75c10.19-0.66,20.42-0.02,30.63-0.3
		c5.86-0.229,11.86,0.68,17.61-0.83c0.55-3.83,0.75-7.689,0.63-11.55c0.05-30.65-0.08-61.311-0.03-91.96
		c-0.88-61.34-0.359-122.69-0.71-184.04c0.391-25.31-0.33-50.63-0.239-75.95c0.079-3.52-0.19-7.04-0.881-10.49
		c-6.05-1.41-12.3-0.86-18.449-1.08c-10.19-0.36-20.48,0.38-30.591-1.17C754.24,27.09,754.21,25.86,754.23,24.64 M883.66,31.6
		c-0.891,14.1,0.06,28.23-0.15,42.35c-0.14,15.02-0.01,30.04-0.069,45.06c0.22,24.98-0.561,49.96,0.25,74.93
		c0,2.21,0.319,4.4,0.79,6.56c1.789,0.37,3.6,0.77,5.449,0.87c12.04,0.56,24.12,0.58,36.15-0.27c7.78-0.86,15.91-1.01,23.04-4.64
		c9.37-4.8,17.42-12.5,22.14-21.97c3.32-7.48,5.2-15.5,7.351-23.37c4.14-16.34,3.399-33.35,2.439-50.02
		c-1.8-18.66-6.01-38.69-19.68-52.48c-6.29-5.72-13.72-10.27-21.82-12.95c-16.609-5.48-34.33-5.56-51.63-5.04
		C886.45,30.7,885.05,31.21,883.66,31.6 M887.02,208.54c-1.899-0.08-3.609,1.48-3.39,3.43c-1.37,44.66-1.07,89.351-1.35,134.04
		c0.229,19.48-0.46,38.971,0.2,58.44c5.029,1.54,10.34,0.729,15.51,0.939c16.87-0.33,34.109,1.41,50.609-3.069
		c8.5-2.471,17.431-4.62,24.631-10.061c6.06-4.279,10.289-10.55,14.05-16.83c6.939-13.34,8.399-28.609,9.189-43.39
		c0.3-7.979,1.22-15.97,0.431-23.95c-0.311-8.76-0.83-17.52-1.851-26.23c-1.489-13.32-2.989-27.14-9.729-39.01
		c-0.29-1.67-2.061-1.53-3.28-1.73c0.53-0.13,1.6-0.39,2.13-0.53c-2.82-3.74-5.64-7.48-8.75-10.98
		c-9.78-10.52-23.439-16.62-37.47-18.94c-9.25-1.42-18.521-3.33-27.931-2.96C902.34,207.6,894.67,208.08,887.02,208.54z"/>
	<path fill="#090909" d="M188.94,114.84c23.7-6.57,49.7-4.3,71.85,6.45c29.76,13.58,52.07,41.83,58.86,73.78
		c5.43,25.31,1.319,52.52-11.61,74.98c-13.17,24.44-36.7,42.83-63.35,50.341c-17.4,5.199-36.19,5.649-53.79,1.149
		c-20.49-4.95-39.35-16.351-53.48-31.97c-9.8-10.11-16.06-22.86-21.82-35.54c-4.36-14.88-7.25-30.49-5.38-46.03
		c1.63-19.04,8.77-37.49,19.95-52.95C144.53,135.59,165.49,120.99,188.94,114.84z"/>
</g>
</svg>
